<svg width="35" height="34" viewBox="0 0 35 34" fill="none" xmlns="http://www.w3.org/2000/svg">
<path d="M17.5 19.3335C17.5 20.7922 18.0795 22.1911 19.1109 23.2226C20.1424 24.254 21.5413 24.8335 23 24.8335C24.4587 24.8335 25.8576 24.254 26.8891 23.2226C27.9205 22.1911 28.5 20.7922 28.5 19.3335C28.5 17.8748 27.9205 16.4759 26.8891 15.4444C25.8576 14.413 24.4587 13.8335 23 13.8335C21.5413 13.8335 20.1424 14.413 19.1109 15.4444C18.0795 16.4759 17.5 17.8748 17.5 19.3335Z" stroke="black" stroke-width="2" stroke-linecap="round" stroke-linejoin="round"/>
<path d="M19.3333 23.9165V32.1665L23 29.4165L26.6666 32.1665V23.9165" stroke="black" stroke-width="2" stroke-linecap="round" stroke-linejoin="round"/>
<path d="M13.8333 26.6667H4.66667C3.69421 26.6667 2.76158 26.2804 2.07394 25.5927C1.38631 24.9051 1 23.9725 1 23V4.66667C1 2.65 2.65 1 4.66667 1H30.3333C31.3058 1 32.2384 1.38631 32.9261 2.07394C33.6137 2.76157 34 3.69421 34 4.66667V23C33.9993 23.643 33.8296 24.2745 33.5078 24.8312C33.186 25.3879 32.7235 25.8502 32.1667 26.1717M6.5 8.33333H28.5M6.5 13.8333H12M6.5 19.3333H10.1667" stroke="black" stroke-width="2" stroke-linecap="round" stroke-linejoin="round"/>
</svg>
