<svg width="95" height="66" viewBox="0 0 95 66" fill="none" xmlns="http://www.w3.org/2000/svg">
<path d="M0.330971 51.0524C5.21574 53.138 9.53956 53.2935 14.6937 52.0494C15.4907 52.1799 14.4521 52.8825 14.1938 53.1019C11.8306 54.9708 7.98164 55.018 4.94359 54.8597C12.3055 59.1363 21.6807 62.7992 30.2144 61.855C40.1228 60.958 50.3728 53.8767 51.3864 43.449C45.2492 41.269 39.0315 37.4784 35.8712 31.5717C32.5222 23.5877 40.7865 19.55 47.4847 24.3903C52.9166 28.317 55.7574 35.0679 55.974 41.6994C81.717 46.8897 98.4957 24.5319 93.1083 0.285793C93.1005 0.256223 93.0988 0.225373 93.1034 0.195128C93.1079 0.164884 93.1185 0.135878 93.1346 0.109887C93.1508 0.0838955 93.172 0.0614631 93.1971 0.0439605C93.2222 0.0264579 93.2505 0.0142528 93.2805 0.00809099C93.3093 0.000146579 93.3394 -0.00197514 93.3691 0.00184826C93.3987 0.00567166 93.4273 0.015364 93.4531 0.0303595C93.479 0.0453551 93.5016 0.0653525 93.5196 0.0891841C93.5377 0.113016 93.5508 0.140204 93.5582 0.169158C100.304 25.34 82.6528 49.0197 55.8102 44.582C54.9354 52.3049 49.4425 58.9086 42.6083 62.2632C30.4366 68.4254 14.466 64.2321 4.21324 56.0066C4.47428 57.3951 5.25462 58.6392 5.52121 60.0222C5.83224 61.6412 5.21852 64.6043 4.48261 63.6879C4.15596 62.1435 3.71125 60.6265 3.15242 59.1502C2.61368 57.6478 1.95831 55.9678 1.35014 54.4932L1.22795 54.2155L0.0227203 51.3885C0.00231171 51.3442 -0.00456238 51.2949 0.00296783 51.2468C0.010498 51.1986 0.0320892 51.1538 0.065033 51.1179C0.0979691 51.082 0.140793 51.0566 0.18811 51.0449C0.235428 51.0333 0.285126 51.0359 0.330971 51.0524ZM48.4594 31.4495C44.3189 23.4933 34.8521 24.8235 40.3006 32.3131C43.29 35.8451 47.1058 38.5838 51.4086 40.2859C51.1168 37.1531 50.1077 34.1296 48.4594 31.4495Z" fill="#FFE6A1"/>
<path d="M89.401 36.8118C89.3812 36.7877 89.3557 36.7689 89.3268 36.7572C89.2979 36.7455 89.2665 36.7413 89.2356 36.7449C89.2046 36.7485 89.1751 36.7598 89.1496 36.7778C89.1242 36.7958 89.1036 36.8199 89.0899 36.8479C86.5545 41.9354 80.8811 45.5927 75.8519 45.9704C75.8067 45.9732 75.7643 45.9932 75.7333 46.0262C75.7024 46.0592 75.6852 46.1028 75.6853 46.1481C75.6858 46.1936 75.7013 46.2375 75.7294 46.2732C75.7575 46.3089 75.7967 46.3342 75.8408 46.3453C81.6253 47.7671 87.5043 42.2631 89.4482 37.1617C89.4708 37.1035 89.4773 37.0403 89.4671 36.9787C89.4568 36.9172 89.4301 36.8595 89.3898 36.8118H89.401Z" fill="#FFE6A1"/>
<path d="M35.1881 20.0084C31.8779 19.6418 29.8257 23.8268 31.3919 26.5705C31.4019 26.5893 31.418 26.6042 31.4375 26.6127C31.4571 26.6212 31.4789 26.6229 31.4995 26.6174C31.5201 26.6119 31.5382 26.5996 31.551 26.5825C31.5637 26.5655 31.5703 26.5446 31.5696 26.5233C31.5696 23.8212 32.5971 21.2469 35.2103 20.1917C35.2307 20.1846 35.2481 20.1708 35.2596 20.1525C35.271 20.1342 35.2758 20.1125 35.2732 20.0911C35.2706 20.0696 35.2608 20.0497 35.2453 20.0347C35.2298 20.0196 35.2096 20.0104 35.1881 20.0084Z" fill="#FFE6A1"/>
<path d="M90.0286 35.1152C90.2919 35.1381 90.5544 35.0618 90.7645 34.9013C90.9236 34.787 91.0446 34.6273 91.1116 34.4431C91.176 34.2648 91.1847 34.0711 91.1366 33.8877C91.0722 33.6388 90.9325 33.4157 90.7367 33.249C90.5019 33.3133 90.2826 33.4248 90.0924 33.5767C89.964 33.6783 89.8665 33.8138 89.811 33.9679C89.7556 34.122 89.7444 34.2885 89.7786 34.4487C89.8315 34.6811 89.9156 34.9053 90.0286 35.1152Z" fill="#FFE6A1"/>
<path d="M31.7613 28.3337C31.7586 28.318 31.7509 28.3036 31.7395 28.2926C31.728 28.2815 31.7133 28.2743 31.6976 28.2722C31.6818 28.27 31.6657 28.2729 31.6517 28.2805C31.6377 28.2881 31.6265 28.2999 31.6196 28.3143C31.5434 28.4657 31.499 28.6311 31.4891 28.8003C31.4771 29.0292 31.5092 29.2583 31.5835 29.4751C31.6576 29.691 31.7737 29.8902 31.9251 30.0611C32.0359 30.1893 32.1721 30.2933 32.325 30.3665C32.3391 30.3725 32.3546 30.3742 32.3697 30.3714C32.3847 30.3685 32.3986 30.3613 32.4096 30.3507C32.4205 30.34 32.4281 30.3263 32.4314 30.3114C32.4346 30.2964 32.4333 30.2808 32.4277 30.2666C32.3583 30.1221 32.3028 29.9889 32.2472 29.8556C32.1723 29.675 32.1084 29.4945 32.0445 29.314C31.9806 29.1335 31.9223 28.953 31.8696 28.7586C31.8307 28.6253 31.7946 28.4893 31.7613 28.3337Z" fill="#FFE6A1"/>
<path d="M33.1192 58.4699C28.812 59.5501 22.6165 59.3196 18.6509 57.2619C18.6425 57.256 18.632 57.2537 18.6219 57.2555C18.6117 57.2573 18.6027 57.2631 18.5968 57.2716C18.5909 57.28 18.5886 57.2905 18.5904 57.3007C18.5923 57.3108 18.598 57.3198 18.6065 57.3257C22.0167 60.3221 29.1897 60.6415 33.1442 58.5421C33.1521 58.5376 33.1581 58.5304 33.1613 58.522C33.1645 58.5135 33.1646 58.5042 33.1616 58.4956C33.1587 58.487 33.1528 58.4798 33.1451 58.4751C33.1373 58.4704 33.1282 58.4685 33.1192 58.4699Z" fill="#FFE6A1"/>
</svg>
