<svg width="272" height="56" viewBox="0 0 272 56" fill="none" xmlns="http://www.w3.org/2000/svg">
<rect x="0.5" y="0.5" width="55" height="55" rx="27.5" stroke="#DCDCDC"/>
<path fill-rule="evenodd" clip-rule="evenodd" d="M38.5 20.5C38.5 18.8425 37.1575 17.5 35.5 17.5H20.5C18.8425 17.5 17.5 18.8425 17.5 20.5V35.5C17.5 37.1575 18.8425 38.5 20.5 38.5H35.5C37.1575 38.5 38.5 37.1575 38.5 35.5V20.5Z" fill="#050505"/>
<path d="M21.6512 34.1045H23.1512L27.1562 29.552L30.6399 34.097H34.7124L29.3687 27.032L33.8912 21.8945H32.3912L28.6749 26.117L25.4874 21.8983H21.2837L26.4549 28.6445L21.6474 34.1083L21.6512 34.1045ZM23.5674 23.0195H24.9324L32.4549 32.972H31.1987L23.5712 23.0195H23.5674Z" fill="white"/>
<rect x="72.5" y="0.5" width="55" height="55" rx="27.5" stroke="#DCDCDC"/>
<path d="M106.429 17.7139C107.491 17.7139 108.4 18.0911 109.154 18.8456C109.908 19.6 110.286 20.5085 110.286 21.571V34.4282C110.286 35.4907 109.908 36.3991 109.154 37.1536C108.4 37.9081 107.491 38.2853 106.429 38.2853H103.911V30.3165H106.576L106.978 27.2094H103.911V25.2273C103.911 24.7273 104.016 24.3523 104.225 24.1023C104.435 23.8523 104.844 23.7273 105.451 23.7273L107.085 23.7139V20.9415C106.522 20.8612 105.728 20.821 104.701 20.821C103.487 20.821 102.516 21.1782 101.788 21.8924C101.06 22.6067 100.696 23.6157 100.696 24.9192V27.2094H98.0178V30.3165H100.696V38.2853H93.5714C92.5089 38.2853 91.6004 37.9081 90.8459 37.1536C90.0915 36.3991 89.7142 35.4907 89.7142 34.4282V21.571C89.7142 20.5085 90.0915 19.6 90.8459 18.8456C91.6004 18.0911 92.5089 17.7139 93.5714 17.7139H106.429Z" fill="black"/>
<rect x="144.5" y="0.5" width="55" height="55" rx="27.5" stroke="#DCDCDC"/>
<g clip-path="url(#clip0_1_5268)">
<path d="M172 18C174.717 18 175.056 18.01 176.122 18.06C177.187 18.11 177.912 18.277 178.55 18.525C179.21 18.779 179.766 19.123 180.322 19.678C180.83 20.1779 181.224 20.7826 181.475 21.45C181.722 22.087 181.89 22.813 181.94 23.878C181.987 24.944 182 25.283 182 28C182 30.717 181.99 31.056 181.94 32.122C181.89 33.187 181.722 33.912 181.475 34.55C181.225 35.2178 180.831 35.8226 180.322 36.322C179.822 36.8303 179.217 37.2238 178.55 37.475C177.913 37.722 177.187 37.89 176.122 37.94C175.056 37.987 174.717 38 172 38C169.283 38 168.944 37.99 167.878 37.94C166.813 37.89 166.088 37.722 165.45 37.475C164.782 37.2245 164.178 36.8309 163.678 36.322C163.169 35.8222 162.776 35.2175 162.525 34.55C162.277 33.913 162.11 33.187 162.06 32.122C162.013 31.056 162 30.717 162 28C162 25.283 162.01 24.944 162.06 23.878C162.11 22.812 162.277 22.088 162.525 21.45C162.775 20.7822 163.169 20.1773 163.678 19.678C164.178 19.1692 164.782 18.7757 165.45 18.525C166.088 18.277 166.812 18.11 167.878 18.06C168.944 18.013 169.283 18 172 18ZM172 23C170.674 23 169.402 23.5268 168.464 24.4645C167.527 25.4021 167 26.6739 167 28C167 29.3261 167.527 30.5979 168.464 31.5355C169.402 32.4732 170.674 33 172 33C173.326 33 174.598 32.4732 175.536 31.5355C176.473 30.5979 177 29.3261 177 28C177 26.6739 176.473 25.4021 175.536 24.4645C174.598 23.5268 173.326 23 172 23ZM178.5 22.75C178.5 22.4185 178.368 22.1005 178.134 21.8661C177.899 21.6317 177.582 21.5 177.25 21.5C176.918 21.5 176.601 21.6317 176.366 21.8661C176.132 22.1005 176 22.4185 176 22.75C176 23.0815 176.132 23.3995 176.366 23.6339C176.601 23.8683 176.918 24 177.25 24C177.582 24 177.899 23.8683 178.134 23.6339C178.368 23.3995 178.5 23.0815 178.5 22.75ZM172 25C172.796 25 173.559 25.3161 174.121 25.8787C174.684 26.4413 175 27.2044 175 28C175 28.7956 174.684 29.5587 174.121 30.1213C173.559 30.6839 172.796 31 172 31C171.204 31 170.441 30.6839 169.879 30.1213C169.316 29.5587 169 28.7956 169 28C169 27.2044 169.316 26.4413 169.879 25.8787C170.441 25.3161 171.204 25 172 25Z" fill="black"/>
</g>
<rect x="216.5" y="0.5" width="55" height="55" rx="27.5" stroke="#DCDCDC"/>
<g clip-path="url(#clip1_1_5268)">
<path d="M250.784 37.821H237.349C235.575 37.821 234.132 36.381 234.132 34.6108V21.2103C234.132 19.44 235.575 18 237.349 18H250.784C252.557 18 254 19.44 254 21.2103V34.6113C254 36.3815 252.557 37.821 250.784 37.821ZM240.846 34.3862H240.85V25.8364H238.19V34.3862H240.845H240.846ZM239.518 24.6687C239.72 24.669 239.921 24.6294 240.107 24.5521C240.294 24.4748 240.464 24.3614 240.607 24.2184C240.75 24.0754 240.864 23.9056 240.941 23.7187C241.018 23.5318 241.058 23.3315 241.057 23.1292C241.057 22.7212 240.894 22.3301 240.606 22.0415C240.317 21.753 239.926 21.5906 239.518 21.5897C239.11 21.5899 238.718 21.7521 238.43 22.0408C238.141 22.3295 237.979 22.721 237.978 23.1292C237.979 23.5375 238.141 23.929 238.43 24.2177C238.718 24.5063 239.11 24.6686 239.518 24.6687ZM250.799 34.3867V29.6995C250.799 27.3964 250.299 25.6246 247.612 25.6246C246.32 25.6246 245.453 26.3323 245.096 27.0041H245.061V25.8364H242.513V34.3862H245.169V30.1554C245.169 29.0395 245.381 27.96 246.764 27.96C248.124 27.96 248.144 29.2359 248.144 30.2272V34.3862H250.799V34.3867Z" fill="black"/>
</g>
<defs>
<clipPath id="clip0_1_5268">
<rect width="24" height="24" fill="white" transform="translate(160 16)"/>
</clipPath>
<clipPath id="clip1_1_5268">
<rect width="20" height="20" fill="white" transform="translate(234 18)"/>
</clipPath>
</defs>
</svg>
