<svg width="84" height="83" viewBox="0 0 84 83" fill="none" xmlns="http://www.w3.org/2000/svg">
<rect width="84" height="82.9935" rx="40" fill="white"/>
<path d="M38.2364 37.338L31.8564 38.263L31.7434 38.286C31.5724 38.3314 31.4164 38.4214 31.2915 38.5468C31.1666 38.6722 31.0772 38.8285 31.0325 38.9997C30.9877 39.1709 30.9892 39.351 31.0368 39.5214C31.0844 39.6919 31.1764 39.8467 31.3034 39.97L35.9254 44.469L34.8354 50.824L34.8224 50.934C34.8119 51.1109 34.8487 51.2874 34.9289 51.4455C35.0091 51.6035 35.1298 51.7374 35.2788 51.8335C35.4277 51.9295 35.5995 51.9843 35.7766 51.9921C35.9536 51.9999 36.1296 51.9605 36.2864 51.878L41.9924 48.878L47.6854 51.878L47.7854 51.924C47.9505 51.989 48.1299 52.0089 48.3052 51.9817C48.4805 51.9545 48.6454 51.8812 48.783 51.7692C48.9206 51.6573 49.026 51.5107 49.0883 51.3446C49.1505 51.1785 49.1675 50.9988 49.1374 50.824L48.0464 44.469L52.6704 39.969L52.7484 39.884C52.8598 39.7467 52.9329 39.5824 52.9601 39.4078C52.9874 39.2331 52.9678 39.0543 52.9035 38.8897C52.8392 38.7251 52.7323 38.5804 52.5939 38.4705C52.4555 38.3606 52.2904 38.2893 52.1154 38.264L45.7354 37.338L42.8834 31.558C42.8009 31.3905 42.6731 31.2495 42.5146 31.1509C42.3561 31.0523 42.1731 31 41.9864 31C41.7997 31 41.6168 31.0523 41.4582 31.1509C41.2997 31.2495 41.1719 31.3905 41.0894 31.558L38.2364 37.338Z" fill="#5A5A59"/>
</svg>
